<svg xmlns="http://www.w3.org/2000/svg" viewBox="0 0 2850 1900"><filter id="b"><feGaussianBlur stdDeviation="12" /></filter><path fill="#3a3f48" d="M0 0h2850v1892H0z"/><g filter="url(#b)" transform="translate(5.6 5.6) scale(11.13281)" fill-opacity=".5"><ellipse fill="#f28629" rx="1" ry="1" transform="rotate(-146.6 77.2 32.9) scale(24.58406 29.7634)"/><ellipse fill="#ecc586" rx="1" ry="1" transform="rotate(-38.1 157.4 -349.2) scale(24.1419 11.75499)"/><path fill="#c0d1ff" d="M8 119.4L14.3 88 28 90.6 22 122z"/><ellipse fill="#040a15" rx="1" ry="1" transform="matrix(93.18973 -5.49655 1.29133 21.89342 251.6 63.4)"/><path fill="#bac3ff" d="M228.6 109.2l4-22.7 12.8 2.3-4 22.7z"/><path fill="#0f131f" d="M56 95h57v27H56z"/><ellipse fill="#1a1d29" rx="1" ry="1" transform="matrix(6.40832 31.49792 -42.0061 8.54624 185 105.3)"/><ellipse fill="#94a0d0" cx="48" cy="109" rx="6" ry="22"/><path fill="#ffac4a" d="M105 80l48 7-39 22z"/><path fill="#2e4f68" d="M41 10h188v40H41z"/></g></svg>